<?xml version="1.0" standalone="no"?>
<!DOCTYPE svg PUBLIC "-//W3C//DTD SVG 1.0//EN" "http://www.w3.org/TR/2001/REC-SVG-20010904/DTD/svg10.dtd">
<svg xmlns="http://www.w3.org/2000/svg" xmlns:xlink="http://www.w3.org/1999/xlink" id="body_1" width="114" height="48">

<g transform="matrix(0.04453125 0 0 0.04456825 0 0)">
	<g transform="matrix(0.1333333 0 0 -0.1332921 0 1077)">
	</g>
    <path transform="matrix(0.1333333 0 0 -0.1332921 0 1077)"  d="M3345 7016L3320 6991L3320 6363L3320 5734L3375 5734L3430 5734L3430 5977L3430 6220L3908 6220C 4324 6220 4388 6222 4408 6236C 4420 6244 4430 6257 4430 6264C 4430 6271 4403 6343 4371 6422L4371 6422L4311 6568L4371 6714C 4403 6795 4430 6865 4430 6870C 4430 6876 4421 6889 4410 6900C 4391 6919 4377 6920 3910 6920L3910 6920L3430 6920L3430 6958C 3430 6995 3418 7014 3383 7034C 3375 7038 3360 7030 3345 7016z" stroke="none" fill="#000000" fill-rule="nonzero" />
	<g transform="matrix(0.1333333 0 0 -0.1332921 0 1077)">
	</g>
    <path transform="matrix(0.1333333 0 0 -0.1332921 0 1077)"  d="M9450 5251C 9255 5223 9113 5126 9036 4967C 8979 4852 8966 4786 8966 4620C 8966 4454 8979 4388 9036 4271C 9105 4130 9246 4023 9405 3989C 9553 3957 9777 3983 9899 4045C 9943 4067 9950 4074 9950 4100C 9950 4117 9948 4130 9946 4130C 9944 4130 9917 4119 9885 4105C 9723 4033 9524 4032 9388 4101C 9324 4134 9234 4230 9200 4301C 9151 4406 9137 4491 9142 4658C 9148 4832 9174 4930 9243 5032C 9322 5149 9418 5200 9560 5200C 9650 5200 9717 5182 9765 5145C 9811 5110 9830 5072 9830 5010L9830 5010L9830 4960L9880 4960L9930 4960L9930 5079L9930 5198L9863 5214C 9696 5251 9546 5264 9450 5251z" stroke="none" fill="#000000" fill-rule="nonzero" />
	<g transform="matrix(0.1333333 0 0 -0.1332921 0 1077)">
	</g>
    <path transform="matrix(0.1333333 0 0 -0.1332921 0 1077)"  d="M15730 5251C 15535 5223 15393 5126 15316 4967C 15259 4852 15246 4786 15246 4620C 15246 4454 15259 4388 15316 4271C 15385 4130 15526 4023 15685 3989C 15833 3957 16057 3983 16179 4045C 16223 4067 16230 4074 16230 4100C 16230 4117 16228 4130 16226 4130C 16224 4130 16197 4119 16165 4105C 16003 4033 15804 4032 15668 4101C 15604 4134 15514 4230 15480 4301C 15431 4406 15417 4491 15422 4658C 15428 4832 15454 4930 15523 5032C 15602 5149 15698 5200 15840 5200C 15930 5200 15997 5182 16045 5145C 16091 5110 16110 5072 16110 5010L16110 5010L16110 4960L16160 4960L16210 4960L16210 5079L16210 5198L16143 5214C 15976 5251 15826 5264 15730 5251z" stroke="none" fill="#000000" fill-rule="nonzero" />
	<g transform="matrix(0.1333333 0 0 -0.1332921 0 1077)">
	</g>
    <path transform="matrix(0.1333333 0 0 -0.1332921 0 1077)"  d="M6830 5205C 6830 5184 6835 5180 6858 5180C 6912 5180 6961 5160 6970 5134C 6976 5119 6980 4903 6980 4615C 6980 4327 6976 4111 6970 4096C 6961 4070 6912 4050 6858 4050C 6835 4050 6830 4046 6830 4025L6830 4025L6830 4000L7270 4000L7710 4000L7710 4110L7710 4220L7665 4220C 7621 4220 7620 4219 7620 4188C 7620 4130 7602 4083 7577 4076C 7541 4066 7223 4069 7196 4080C 7157 4094 7150 4142 7150 4388L7150 4388L7150 4610L7304 4610C 7477 4610 7490 4605 7490 4544C 7490 4513 7493 4510 7520 4510L7520 4510L7550 4510L7550 4645L7550 4780L7520 4780C 7493 4780 7490 4777 7490 4749C 7490 4681 7487 4680 7310 4680L7310 4680L7150 4680L7150 4920L7150 5160L7349 5160C 7498 5160 7551 5157 7557 5148C 7561 5141 7567 5108 7570 5075L7570 5075L7575 5015L7618 5012L7660 5009L7660 5119L7660 5230L7245 5230L6830 5230L6830 5205z" stroke="none" fill="#000000" fill-rule="nonzero" />
	<g transform="matrix(0.1333333 0 0 -0.1332921 0 1077)">
	</g>
    <path transform="matrix(0.1333333 0 0 -0.1332921 0 1077)"  d="M7780 5205C 7780 5183 7784 5180 7818 5180C 7839 5180 7865 5173 7877 5165C 7896 5152 8198 4662 8216 4617C 8222 4601 7902 4113 7861 4076C 7851 4066 7823 4056 7801 4053C 7766 4048 7760 4044 7760 4024L7760 4024L7760 4000L7925 4000L8090 4000L8090 4025C 8090 4049 8087 4050 8037 4050C 8008 4050 7975 4056 7965 4064C 7947 4077 7948 4079 7973 4124C 8005 4181 8263 4559 8270 4560C 8275 4560 8505 4170 8535 4111C 8552 4078 8551 4076 8534 4063C 8524 4056 8492 4050 8463 4050C 8413 4050 8410 4049 8410 4025L8410 4025L8410 4000L8640 4000L8870 4000L8870 4025C 8870 4048 8866 4050 8829 4050C 8797 4050 8782 4056 8763 4078C 8749 4093 8662 4233 8570 4390L8570 4390L8403 4675L8445 4735C 8729 5142 8760 5180 8808 5180C 8835 5180 8840 5184 8840 5205L8840 5205L8840 5230L8690 5230L8540 5230L8540 5205C 8540 5183 8544 5180 8579 5180C 8655 5180 8666 5163 8628 5101C 8583 5028 8368 4720 8361 4720C 8353 4720 8163 5041 8128 5113C 8101 5171 8108 5180 8188 5180C 8237 5180 8240 5182 8240 5205L8240 5205L8240 5230L8010 5230L7780 5230L7780 5205z" stroke="none" fill="#000000" fill-rule="nonzero" />
	<g transform="matrix(0.1333333 0 0 -0.1332921 0 1077)">
	</g>
    <path transform="matrix(0.1333333 0 0 -0.1332921 0 1077)"  d="M10090 5205C 10090 5184 10095 5180 10118 5180C 10166 5180 10219 5160 10232 5137C 10242 5120 10245 5001 10245 4625C 10245 4356 10241 4122 10237 4107C 10228 4074 10180 4050 10125 4050C 10094 4050 10090 4047 10090 4025L10090 4025L10090 4000L10530 4000L10970 4000L10970 4110L10970 4220L10926 4220L10883 4220L10877 4158C 10873 4115 10866 4092 10854 4083C 10841 4073 10787 4070 10654 4070C 10448 4070 10436 4074 10420 4145C 10415 4167 10410 4281 10410 4398L10410 4398L10410 4610L10561 4610C 10644 4610 10719 4606 10729 4600C 10740 4595 10750 4574 10754 4550C 10760 4514 10763 4510 10790 4510L10790 4510L10820 4510L10820 4645L10820 4780L10790 4780C 10764 4780 10760 4776 10754 4743C 10743 4680 10743 4680 10569 4680L10569 4680L10410 4680L10410 4920L10410 5160L10611 5158C 10839 5155 10825 5160 10835 5068L10835 5068L10841 5010L10881 5010L10920 5010L10920 5120L10920 5230L10505 5230L10090 5230L10090 5205z" stroke="none" fill="#000000" fill-rule="nonzero" />
	<g transform="matrix(0.1333333 0 0 -0.1332921 0 1077)">
	</g>
    <path transform="matrix(0.1333333 0 0 -0.1332921 0 1077)"  d="M11050 5206C 11050 5185 11055 5182 11099 5178C 11174 5171 11197 5151 11205 5088C 11208 5059 11210 4825 11208 4568C 11205 4110 11205 4100 11184 4080C 11170 4066 11145 4057 11107 4053C 11055 4048 11050 4045 11050 4024L11050 4024L11050 4000L11490 4000L11930 4000L11930 4120L11930 4240L11891 4240L11852 4240L11842 4169C 11836 4129 11826 4092 11820 4086C 11813 4079 11741 4074 11619 4072C 11458 4069 11425 4071 11404 4085L11404 4085L11380 4100L11380 4611C 11380 4936 11384 5128 11390 5140C 11401 5160 11456 5180 11503 5180C 11525 5180 11530 5184 11530 5205L11530 5205L11530 5230L11290 5230L11050 5230L11050 5206z" stroke="none" fill="#000000" fill-rule="nonzero" />
	<g transform="matrix(0.1333333 0 0 -0.1332921 0 1077)">
	</g>
    <path transform="matrix(0.1333333 0 0 -0.1332921 0 1077)"  d="M12000 5205C 12000 5184 12005 5180 12028 5180C 12076 5180 12129 5160 12142 5137C 12152 5120 12155 5001 12155 4625C 12155 4356 12151 4122 12147 4107C 12138 4074 12090 4050 12035 4050C 12004 4050 12000 4047 12000 4025L12000 4025L12000 4000L12440 4000L12880 4000L12880 4120L12880 4240L12835 4240L12790 4240L12790 4191C 12790 4127 12774 4083 12747 4076C 12735 4073 12643 4070 12543 4070C 12335 4070 12335 4070 12325 4152C 12321 4181 12320 4410 12322 4660C 12324 5003 12328 5120 12338 5137C 12351 5160 12404 5180 12453 5180C 12475 5180 12480 5184 12480 5205L12480 5205L12480 5230L12240 5230L12000 5230L12000 5205z" stroke="none" fill="#000000" fill-rule="nonzero" />
	<g transform="matrix(0.1333333 0 0 -0.1332921 0 1077)">
	</g>
    <path transform="matrix(0.1333333 0 0 -0.1332921 0 1077)"  d="M12950 5205C 12950 5184 12955 5180 12978 5180C 13037 5180 13078 5161 13089 5128C 13096 5107 13100 4937 13100 4615C 13100 4293 13096 4123 13089 4102C 13078 4069 13037 4050 12978 4050C 12955 4050 12950 4046 12950 4025L12950 4025L12950 4000L13390 4000L13830 4000L13830 4110L13830 4220L13786 4220L13742 4220L13735 4164C 13723 4069 13721 4068 13500 4072C 13334 4075 13308 4077 13293 4093C 13277 4109 13275 4137 13272 4360L13272 4360L13269 4610L13424 4610C 13573 4610 13579 4609 13594 4588C 13603 4576 13610 4553 13610 4538C 13610 4514 13614 4510 13640 4510L13640 4510L13670 4510L13670 4645L13670 4780L13640 4780C 13615 4780 13610 4776 13610 4756C 13610 4742 13606 4720 13600 4706L13600 4706L13590 4680L13430 4680L13270 4680L13270 4920L13270 5160L13469 5160C 13604 5160 13671 5156 13676 5149C 13679 5143 13685 5109 13688 5074L13688 5074L13693 5010L13736 5010L13780 5010L13780 5120L13780 5230L13365 5230L12950 5230L12950 5205z" stroke="none" fill="#000000" fill-rule="nonzero" />
	<g transform="matrix(0.1333333 0 0 -0.1332921 0 1077)">
	</g>
    <path transform="matrix(0.1333333 0 0 -0.1332921 0 1077)"  d="M13910 5205C 13910 5184 13915 5180 13938 5180C 13986 5180 14039 5160 14052 5137C 14062 5120 14065 5001 14065 4625C 14065 4356 14061 4122 14057 4107C 14048 4074 14000 4050 13945 4050C 13914 4050 13910 4047 13910 4025L13910 4025L13910 4000L14100 4000L14290 4000L14290 4025C 14290 4046 14285 4050 14263 4050C 14208 4050 14159 4070 14149 4097C 14144 4112 14141 4299 14142 4566L14142 4566L14145 5011L14525 4496C 14865 4034 14908 3981 14933 3980L14933 3980L14960 3980L14960 4544C 14960 4878 14964 5119 14970 5134C 14979 5160 15028 5180 15083 5180C 15105 5180 15110 5184 15110 5205L15110 5205L15110 5230L14920 5230L14730 5230L14730 5206C 14730 5185 14736 5182 14781 5177C 14850 5169 14876 5150 14883 5103C 14892 5049 14892 4280 14883 4281C 14878 4281 14720 4494 14530 4755L14530 4755L14185 5229L14048 5230L13910 5230L13910 5205z" stroke="none" fill="#000000" fill-rule="nonzero" />
	<g transform="matrix(0.1333333 0 0 -0.1332921 0 1077)">
	</g>
    <path transform="matrix(0.1333333 0 0 -0.1332921 0 1077)"  d="M16370 5205C 16370 5184 16375 5180 16398 5180C 16452 5180 16501 5160 16510 5134C 16516 5119 16520 4903 16520 4615C 16520 4327 16516 4111 16510 4096C 16501 4070 16452 4050 16398 4050C 16375 4050 16370 4046 16370 4025L16370 4025L16370 4000L16810 4000L17250 4000L17250 4110L17250 4220L17205 4220C 17161 4220 17160 4219 17160 4188C 17160 4130 17142 4083 17117 4076C 17081 4066 16763 4069 16736 4080C 16697 4094 16690 4142 16690 4388L16690 4388L16690 4610L16844 4610C 17017 4610 17030 4605 17030 4544C 17030 4513 17033 4510 17060 4510L17060 4510L17090 4510L17090 4645L17090 4780L17060 4780C 17033 4780 17030 4777 17030 4749C 17030 4681 17027 4680 16850 4680L16850 4680L16690 4680L16690 4920L16690 5160L16889 5160C 17038 5160 17091 5157 17097 5148C 17101 5141 17107 5108 17110 5075L17110 5075L17115 5015L17158 5012L17200 5009L17200 5119L17200 5230L16785 5230L16370 5230L16370 5205z" stroke="none" fill="#000000" fill-rule="nonzero" />
	<g transform="matrix(0.1333333 0 0 -0.1332921 0 1077)">
	</g>
    <path transform="matrix(0.1333333 0 0 -0.1332921 0 1077)"  d="M2545 4436C 2508 4419 2465 4374 2451 4337C 2445 4321 2440 4271 2440 4224L2440 4224L2440 4140L2610 4140L2780 4140L2780 4228C 2780 4301 2776 4324 2757 4360C 2717 4435 2621 4470 2545 4436z" stroke="none" fill="#000000" fill-rule="nonzero" />
	<g transform="matrix(0.1333333 0 0 -0.1332921 0 1077)">
	</g>
    <path transform="matrix(0.1333333 0 0 -0.1332921 0 1077)"  d="M3300 4428C 3224 4389 3193 4314 3202 4190L3202 4190L3205 4145L3375 4145L3545 4145L3544 4235C 3544 4298 3538 4334 3527 4357C 3484 4439 3382 4471 3300 4428z" stroke="none" fill="#000000" fill-rule="nonzero" />
	<g transform="matrix(0.1333333 0 0 -0.1332921 0 1077)">
	</g>
    <path transform="matrix(0.1333333 0 0 -0.1332921 0 1077)"  d="M4060 4427C 3993 4392 3970 4340 3970 4228L3970 4228L3970 4140L4141 4140L4312 4140L4308 4238C 4305 4323 4302 4342 4280 4373C 4251 4416 4189 4450 4138 4450C 4119 4450 4084 4440 4060 4427z" stroke="none" fill="#000000" fill-rule="nonzero" />
	<g transform="matrix(0.1333333 0 0 -0.1332921 0 1077)">
	</g>
    <path transform="matrix(0.1333333 0 0 -0.1332921 0 1077)"  d="M2440 3865L2440 3710L2610 3710L2780 3710L2780 3865L2780 4020L2610 4020L2440 4020L2440 3865z" stroke="none" fill="#000000" fill-rule="nonzero" />
	<g transform="matrix(0.1333333 0 0 -0.1332921 0 1077)">
	</g>
    <path transform="matrix(0.1333333 0 0 -0.1332921 0 1077)"  d="M3207 4014C 3203 4010 3200 3940 3200 3858L3200 3858L3200 3710L3375 3710L3551 3710L3548 3863L3545 4015L3379 4018C 3288 4019 3211 4017 3207 4014z" stroke="none" fill="#000000" fill-rule="nonzero" />
	<g transform="matrix(0.1333333 0 0 -0.1332921 0 1077)">
	</g>
    <path transform="matrix(0.1333333 0 0 -0.1332921 0 1077)"  d="M3970 3865L3970 3710L4140 3710L4310 3710L4310 3865L4310 4020L4140 4020L3970 4020L3970 3865z" stroke="none" fill="#000000" fill-rule="nonzero" />
	<g transform="matrix(0.1333333 0 0 -0.1332921 0 1077)">
	</g>
    <path transform="matrix(0.1333333 0 0 -0.1332921 0 1077)"  d="M1164 3966C 1147 3953 1145 3936 1142 3756L1142 3756L1139 3560L1164 3535C 1178 3521 1194 3510 1200 3510C 1206 3510 1222 3521 1236 3535L1236 3535L1261 3560L1258 3756C 1255 3936 1253 3953 1236 3966C 1225 3974 1209 3980 1200 3980C 1191 3980 1175 3974 1164 3966z" stroke="none" fill="#000000" fill-rule="nonzero" />
	<g transform="matrix(0.1333333 0 0 -0.1332921 0 1077)">
	</g>
    <path transform="matrix(0.1333333 0 0 -0.1332921 0 1077)"  d="M1456 3961C 1442 3945 1440 3918 1442 3739L1442 3739L1445 3536L1471 3521C 1495 3508 1500 3508 1524 3523L1524 3523L1550 3540L1550 3744C 1550 3928 1548 3948 1532 3963C 1508 3985 1477 3984 1456 3961z" stroke="none" fill="#000000" fill-rule="nonzero" />
	<g transform="matrix(0.1333333 0 0 -0.1332921 0 1077)">
	</g>
    <path transform="matrix(0.1333333 0 0 -0.1332921 0 1077)"  d="M1746 3958C 1733 3940 1730 3901 1730 3743C 1730 3563 1731 3549 1750 3530C 1774 3506 1788 3505 1818 3526C 1840 3541 1840 3546 1840 3745C 1840 3917 1838 3951 1824 3964C 1802 3987 1764 3984 1746 3958z" stroke="none" fill="#000000" fill-rule="nonzero" />
	<g transform="matrix(0.1333333 0 0 -0.1332921 0 1077)">
	</g>
    <path transform="matrix(0.1333333 0 0 -0.1332921 0 1077)"  d="M4927 3962C 4912 3946 4910 3915 4910 3742C 4910 3546 4911 3541 4932 3526C 4962 3505 4976 3506 5000 3530C 5019 3549 5020 3563 5020 3743C 5020 3901 5017 3940 5004 3958C 4986 3985 4949 3987 4927 3962z" stroke="none" fill="#000000" fill-rule="nonzero" />
	<g transform="matrix(0.1333333 0 0 -0.1332921 0 1077)">
	</g>
    <path transform="matrix(0.1333333 0 0 -0.1332921 0 1077)"  d="M5222 3964C 5201 3949 5200 3944 5200 3749C 5200 3563 5201 3549 5220 3530C 5245 3505 5261 3505 5291 3529C 5315 3548 5315 3550 5315 3743C 5315 3921 5313 3940 5296 3959C 5273 3984 5252 3986 5222 3964z" stroke="none" fill="#000000" fill-rule="nonzero" />
	<g transform="matrix(0.1333333 0 0 -0.1332921 0 1077)">
	</g>
    <path transform="matrix(0.1333333 0 0 -0.1332921 0 1077)"  d="M5514 3966C 5497 3953 5495 3936 5492 3769C 5490 3669 5491 3576 5495 3563C 5502 3534 5539 3509 5567 3516C 5604 3526 5610 3561 5610 3755C 5610 3927 5609 3941 5590 3960C 5566 3984 5541 3985 5514 3966z" stroke="none" fill="#000000" fill-rule="nonzero" />
	<g transform="matrix(0.1333333 0 0 -0.1332921 0 1077)">
	</g>
    <path transform="matrix(0.1333333 0 0 -0.1332921 0 1077)"  d="M7130 3650L7130 3600L12045 3600L16960 3600L16960 3650L16960 3700L12045 3700L7130 3700L7130 3650zM16950 3650L16950 3610L12045 3610L7140 3610L7140 3650L7140 3690L12045 3690L16950 3690L16950 3650z" stroke="none" fill="#000000" fill-rule="nonzero" />
	<g transform="matrix(0.1333333 0 0 -0.1332921 0 1077)">
	</g>
    <path transform="matrix(0.1333333 0 0 -0.1332921 0 1077)"  d="M2440 3430L2440 3280L2610 3280L2780 3280L2780 3430L2780 3580L2610 3580L2440 3580L2440 3430z" stroke="none" fill="#000000" fill-rule="nonzero" />
	<g transform="matrix(0.1333333 0 0 -0.1332921 0 1077)">
	</g>
    <path transform="matrix(0.1333333 0 0 -0.1332921 0 1077)"  d="M3200 3430L3200 3280L3375 3280L3550 3280L3550 3430L3550 3580L3375 3580L3200 3580L3200 3430z" stroke="none" fill="#000000" fill-rule="nonzero" />
	<g transform="matrix(0.1333333 0 0 -0.1332921 0 1077)">
	</g>
    <path transform="matrix(0.1333333 0 0 -0.1332921 0 1077)"  d="M3970 3430L3970 3280L4140 3280L4310 3280L4310 3430L4310 3580L4140 3580L3970 3580L3970 3430z" stroke="none" fill="#000000" fill-rule="nonzero" />
	<g transform="matrix(0.1333333 0 0 -0.1332921 0 1077)">
	</g>
    <path transform="matrix(0.1333333 0 0 -0.1332921 0 1077)"  d="M9670 3241C 9475 3213 9333 3116 9256 2957C 9199 2842 9186 2776 9186 2610C 9186 2444 9199 2378 9256 2261C 9325 2120 9466 2013 9625 1979C 9773 1947 9997 1973 10119 2035C 10163 2057 10170 2064 10170 2090C 10170 2107 10168 2120 10166 2120C 10164 2120 10137 2109 10105 2095C 9943 2023 9744 2022 9608 2091C 9544 2124 9454 2220 9420 2291C 9371 2396 9357 2481 9362 2648C 9368 2822 9394 2920 9463 3022C 9542 3139 9638 3190 9780 3190C 9870 3190 9937 3172 9985 3135C 10031 3100 10050 3062 10050 3000L10050 3000L10050 2950L10100 2950L10150 2950L10150 3069L10150 3188L10083 3204C 9916 3241 9766 3254 9670 3241z" stroke="none" fill="#000000" fill-rule="nonzero" />
	<g transform="matrix(0.1333333 0 0 -0.1332921 0 1077)">
	</g>
    <path transform="matrix(0.1333333 0 0 -0.1332921 0 1077)"  d="M8361 3063C 8322 2970 8212 2709 8116 2481C 8020 2253 7937 2063 7931 2057C 7926 2052 7901 2045 7876 2043C 7836 2038 7830 2034 7830 2014L7830 2014L7830 1990L7985 1990L8140 1990L8140 2015C 8140 2038 8136 2040 8099 2040C 8077 2040 8050 2045 8038 2051C 8011 2066 8018 2101 8082 2251L8082 2251L8132 2370L8398 2370L8665 2370L8712 2255C 8738 2192 8763 2123 8766 2101C 8772 2064 8770 2060 8746 2050C 8731 2045 8701 2040 8679 2040C 8644 2040 8640 2037 8640 2015L8640 2015L8640 1990L8865 1990L9090 1990L9090 2015C 9090 2037 9086 2040 9057 2040C 8981 2040 8977 2049 8695 2728C 8439 3342 8467 3314 8361 3063zM8520 2711C 8580 2565 8628 2445 8626 2443C 8625 2441 8520 2441 8393 2442L8393 2442L8163 2445L8279 2717C 8342 2867 8398 2986 8402 2982C 8406 2978 8459 2856 8520 2711z" stroke="none" fill="#000000" fill-rule="nonzero" />
	<g transform="matrix(0.1333333 0 0 -0.1332921 0 1077)">
	</g>
    <path transform="matrix(0.1333333 0 0 -0.1332921 0 1077)"  d="M10877 3223C 10874 3218 10770 2972 10645 2675C 10520 2378 10409 2118 10399 2098C 10377 2055 10354 2040 10311 2040C 10285 2040 10280 2036 10280 2015L10280 2015L10280 1990L10435 1990L10590 1990L10590 2015C 10590 2038 10586 2040 10547 2040C 10523 2040 10495 2046 10485 2054C 10467 2067 10466 2072 10478 2117C 10485 2143 10511 2210 10535 2265L10535 2265L10578 2365L10846 2365L11113 2365L11157 2261C 11181 2203 11205 2138 11210 2116C 11218 2080 11217 2073 11199 2058C 11186 2047 11161 2040 11134 2040C 11094 2040 11090 2038 11090 2015L11090 2015L11090 1990L11310 1990L11530 1990L11530 2015C 11530 2036 11525 2040 11501 2040C 11461 2040 11424 2073 11391 2139C 11376 2170 11267 2428 11149 2712C 10942 3213 10934 3230 10908 3230C 10893 3230 10879 3227 10877 3223zM10967 2712L11078 2445L10848 2442C 10721 2441 10616 2441 10614 2443C 10612 2445 10663 2569 10727 2718C 10790 2868 10845 2988 10849 2985C 10852 2981 10905 2858 10967 2712z" stroke="none" fill="#000000" fill-rule="nonzero" />
	<g transform="matrix(0.1333333 0 0 -0.1332921 0 1077)">
	</g>
    <path transform="matrix(0.1333333 0 0 -0.1332921 0 1077)"  d="M11580 3196C 11580 3174 11585 3170 11608 3170C 11667 3170 11708 3151 11719 3118C 11726 3097 11730 2927 11730 2605C 11730 2283 11726 2113 11719 2092C 11708 2059 11667 2040 11608 2040C 11585 2040 11580 2036 11580 2014L11580 2014L11580 1988L11933 1993C 12214 1996 12296 2000 12339 2013C 12535 2071 12676 2221 12727 2428C 12750 2522 12750 2742 12726 2830C 12675 3019 12550 3142 12355 3196C 12306 3210 12230 3214 11938 3217L11938 3217L11580 3222L11580 3196zM12215 3145C 12308 3125 12399 3079 12445 3029C 12534 2930 12576 2769 12567 2565C 12551 2211 12400 2049 12090 2051C 11980 2051 11931 2065 11913 2100C 11903 2119 11900 2246 11900 2643L11900 2643L11900 3160L12023 3160C 12092 3160 12176 3153 12215 3145z" stroke="none" fill="#000000" fill-rule="nonzero" />
	<g transform="matrix(0.1333333 0 0 -0.1332921 0 1077)">
	</g>
    <path transform="matrix(0.1333333 0 0 -0.1332921 0 1077)"  d="M12880 3195C 12880 3174 12885 3170 12908 3170C 12956 3170 13009 3150 13022 3127C 13032 3110 13035 2991 13035 2615C 13035 2346 13031 2112 13027 2097C 13018 2064 12970 2040 12915 2040C 12884 2040 12880 2037 12880 2015L12880 2015L12880 1990L13320 1990L13760 1990L13760 2100L13760 2210L13716 2210L13673 2210L13667 2148C 13663 2105 13656 2082 13644 2073C 13631 2063 13577 2060 13444 2060C 13238 2060 13226 2064 13210 2135C 13205 2157 13200 2271 13200 2388L13200 2388L13200 2600L13351 2600C 13434 2600 13509 2596 13519 2590C 13530 2585 13540 2564 13544 2540C 13550 2504 13553 2500 13580 2500L13580 2500L13610 2500L13610 2635L13610 2770L13580 2770C 13554 2770 13550 2766 13544 2733C 13533 2670 13533 2670 13359 2670L13359 2670L13200 2670L13200 2910L13200 3150L13401 3148C 13629 3145 13615 3150 13625 3058L13625 3058L13631 3000L13671 3000L13710 3000L13710 3110L13710 3220L13295 3220L12880 3220L12880 3195z" stroke="none" fill="#000000" fill-rule="nonzero" />
	<g transform="matrix(0.1333333 0 0 -0.1332921 0 1077)">
	</g>
    <path transform="matrix(0.1333333 0 0 -0.1332921 0 1077)"  d="M13840 3197C 13840 3175 13845 3172 13889 3168C 13964 3161 13987 3141 13995 3078C 13998 3049 14000 2815 13998 2558C 13995 2100 13995 2090 13974 2070C 13960 2056 13935 2047 13897 2043C 13845 2038 13840 2035 13840 2014L13840 2014L13840 1990L14040 1990L14240 1990L14240 2015C 14240 2037 14236 2040 14206 2040C 14158 2040 14112 2059 14097 2084C 14083 2108 14073 3050 14087 3050C 14091 3050 14179 2835 14281 2572C 14464 2103 14468 2095 14496 2092L14496 2092L14525 2089L14715 2561C 14819 2820 14909 3034 14913 3037C 14917 3039 14919 2828 14918 2566C 14915 2102 14915 2090 14894 2070C 14882 2057 14855 2047 14822 2043C 14776 2038 14770 2035 14770 2014L14770 2014L14770 1990L15000 1990L15230 1990L15230 2015C 15230 2037 15226 2040 15195 2040C 15140 2040 15092 2064 15083 2097C 15079 2112 15075 2346 15075 2615C 15075 2991 15078 3110 15088 3127C 15101 3150 15154 3170 15203 3170C 15225 3170 15230 3174 15230 3195L15230 3195L15230 3220L15078 3220L14925 3220L14746 2775C 14648 2530 14564 2330 14561 2330C 14558 2330 14474 2530 14374 2773L14374 2773L14194 3215L14017 3218L13840 3220L13840 3197z" stroke="none" fill="#000000" fill-rule="nonzero" />
	<g transform="matrix(0.1333333 0 0 -0.1332921 0 1077)">
	</g>
    <path transform="matrix(0.1333333 0 0 -0.1332921 0 1077)"  d="M15270 3195C 15270 3173 15274 3170 15309 3170C 15331 3170 15357 3163 15369 3153C 15380 3143 15471 3001 15570 2837L15570 2837L15750 2539L15750 2325C 15750 2208 15746 2100 15740 2086C 15731 2060 15682 2040 15628 2040C 15605 2040 15600 2036 15600 2015L15600 2015L15600 1990L15835 1990L16070 1990L16070 2015C 16070 2036 16065 2040 16043 2040C 16027 2040 15999 2045 15978 2050C 15925 2065 15920 2090 15920 2329L15920 2329L15920 2536L16098 2822C 16195 2980 16284 3121 16295 3136C 16311 3157 16326 3164 16368 3168C 16415 3172 16420 3175 16420 3196L16420 3196L16420 3220L16255 3220L16090 3220L16090 3195C 16090 3172 16093 3170 16138 3170C 16165 3170 16195 3164 16206 3156C 16225 3142 16224 3141 16203 3097C 16162 3012 15907 2609 15900 2617C 15889 2631 15654 3032 15631 3077C 15593 3153 15605 3170 15698 3170C 15736 3170 15740 3172 15740 3195L15740 3195L15740 3220L15505 3220L15270 3220L15270 3195z" stroke="none" fill="#000000" fill-rule="nonzero" />
	<g transform="matrix(0.1333333 0 0 -0.1332921 0 1077)">
	</g>
    <path transform="matrix(0.1333333 0 0 -0.1332921 0 1077)"  d="M1369 2897C 1296 2866 1247 2826 1206 2765C 1147 2676 1147 2673 1142 2318L1142 2318L1138 1990L1490 1990L1841 1990L1838 2328L1835 2665L1809 2720C 1776 2789 1712 2853 1640 2888C 1562 2926 1448 2930 1369 2897z" stroke="none" fill="#000000" fill-rule="nonzero" />
	<g transform="matrix(0.1333333 0 0 -0.1332921 0 1077)">
	</g>
    <path transform="matrix(0.1333333 0 0 -0.1332921 0 1077)"  d="M2319 2901C 2190 2850 2112 2754 2090 2619C 2085 2584 2080 2428 2080 2273L2080 2273L2080 1990L2430 1990L2781 1990L2778 2328L2775 2665L2749 2720C 2716 2789 2652 2853 2580 2888C 2508 2924 2389 2930 2319 2901z" stroke="none" fill="#000000" fill-rule="nonzero" />
	<g transform="matrix(0.1333333 0 0 -0.1332921 0 1077)">
	</g>
    <path transform="matrix(0.1333333 0 0 -0.1332921 0 1077)"  d="M3259 2901C 3155 2860 3090 2794 3047 2689C 3027 2638 3026 2615 3022 2313L3022 2313L3018 1990L3374 1990L3730 1990L3730 2273C 3730 2428 3725 2584 3720 2619C 3700 2741 3631 2833 3522 2887C 3448 2924 3330 2930 3259 2901z" stroke="none" fill="#000000" fill-rule="nonzero" />
	<g transform="matrix(0.1333333 0 0 -0.1332921 0 1077)">
	</g>
    <path transform="matrix(0.1333333 0 0 -0.1332921 0 1077)"  d="M4197 2900C 4103 2863 4032 2794 3994 2702C 3971 2646 3970 2637 3970 2318L3970 2318L3970 1990L4320 1990L4670 1990L4670 2283C 4670 2621 4662 2679 4605 2764C 4562 2828 4517 2865 4441 2897C 4370 2926 4266 2927 4197 2900z" stroke="none" fill="#000000" fill-rule="nonzero" />
	<g transform="matrix(0.1333333 0 0 -0.1332921 0 1077)">
	</g>
    <path transform="matrix(0.1333333 0 0 -0.1332921 0 1077)"  d="M5137 2901C 5042 2863 4972 2794 4934 2702C 4911 2646 4910 2637 4910 2318L4910 2318L4910 1990L5260 1990L5610 1990L5610 2284C 5610 2445 5605 2601 5600 2630C 5578 2745 5505 2840 5402 2888C 5326 2924 5208 2929 5137 2901z" stroke="none" fill="#000000" fill-rule="nonzero" />
	<g transform="matrix(0.1333333 0 0 -0.1332921 0 1077)">
	</g>
    <path transform="matrix(0.1333333 0 0 -0.1332921 0 1077)"  d="M670 1690L670 1630L3375 1630L6080 1630L6080 1690L6080 1750L3375 1750L670 1750L670 1690z" stroke="none" fill="#000000" fill-rule="nonzero" />
</g>
</svg>